<?xml version="1.0" standalone="no"?>
<!DOCTYPE svg PUBLIC "-//W3C//DTD SVG 20010904//EN"
 "http://www.w3.org/TR/2001/REC-SVG-20010904/DTD/svg10.dtd">
<svg version="1.0" xmlns="http://www.w3.org/2000/svg"
 width="700.000000pt" height="700.000000pt" viewBox="0 0 700.000000 700.000000"
 preserveAspectRatio="xMidYMid meet">
<metadata>
Created by potrace 1.14, written by Peter Selinger 2001-2017
</metadata>
<g transform="translate(0.000000,700.000000) scale(0.100000,-0.100000)"
fill="#000000" stroke="none">
<path d="M3457 5684 c-1 -1 -38 -5 -82 -8 -115 -9 -275 -42 -394 -82 -347
-116 -567 -338 -650 -659 -39 -150 -33 -371 14 -511 98 -295 362 -490 845
-627 69 -20 210 -59 314 -87 340 -92 442 -144 488 -248 41 -91 -5 -219 -100
-286 -35 -24 -162 -79 -162 -71 0 3 -11 0 -26 -5 -73 -28 -448 -31 -544 -5 -8
2 -31 7 -50 10 -108 18 -249 67 -413 144 -176 82 -188 72 -301 -264 -82 -243
-84 -250 -70 -285 19 -46 29 -53 153 -101 186 -73 426 -132 636 -156 89 -10
511 -10 588 -1 498 64 848 285 992 627 48 115 67 208 70 351 6 258 -62 443
-222 605 -163 165 -401 266 -936 401 -417 104 -536 172 -539 307 -2 148 101
237 322 278 80 15 341 20 440 8 96 -11 97 -11 200 -34 100 -21 90 -19 215 -54
116 -32 138 -33 178 -6 30 19 22 2 102 230 35 99 70 200 79 224 24 67 21 105
-13 139 -17 16 -49 34 -73 41 -150 40 -240 63 -293 72 -87 14 -260 38 -335 45
-64 6 -428 13 -433 8z"/>
<path d="M1758 2353 c-44 -17 -50 -30 -124 -240 -75 -216 -104 -305 -104 -325
0 -41 34 -86 99 -128 164 -108 289 -179 457 -260 224 -108 443 -191 636 -240
46 -11 99 -25 118 -30 19 -5 53 -12 75 -15 22 -4 48 -8 57 -11 19 -6 36 -9
111 -19 27 -4 57 -8 66 -10 117 -22 546 -23 671 0 14 2 43 6 65 8 22 3 67 10
100 16 33 6 75 13 94 16 19 3 37 8 41 10 4 2 20 6 36 9 52 10 187 47 274 76
282 94 514 201 793 368 241 143 240 140 155 384 -33 95 -73 212 -89 259 -33
95 -59 127 -109 134 -28 3 -52 -8 -159 -79 -69 -46 -178 -113 -241 -148 -106
-59 -304 -158 -316 -158 -3 0 -24 -9 -47 -19 -130 -59 -435 -146 -595 -170
-206 -31 -453 -32 -647 -1 -33 5 -78 12 -99 16 -22 3 -51 10 -65 16 -14 5 -27
9 -29 8 -15 -8 -273 72 -407 127 -220 90 -415 195 -639 345 -107 72 -130 80
-178 61z"/>
</g>
</svg>
